{"title":"Batman v Superman: Dawn of Justice *2016* (Theatrical Cut)[720p.","uid":15376849,"size":2920053307,"categoryP":"video","categoryS":"hd___movies","magnet":"?xt=urn:btih:fb4b8d5e7f110d813c690d037db266c8e575b7f1&amp;dn=Batman+v+Superman%3A+Dawn+of+Justice+%2A2016%2A+%28Theatrical+Cut%29%5B720p.&amp;tr=udp%3A%2F%2Ftracker.leechers-paradise.org%3A6969&amp;tr=udp%3A%2F%2Fzer0day.ch%3A1337&amp;tr=udp%3A%2F%2Fopen.demonii.com%3A1337&amp;tr=udp%3A%2F%2Ftracker.coppersurfer.tk%3A6969&amp;tr=udp%3A%2F%2Fexodus.desync.com%3A6969","seeders":10,"leechers":11,"uploader":"Leon345","files":3,"time":1469196074,"description":"Batman v Superman: Świt sprawiedliwości - Batman v Superman: Dawn of Justice *2016* TC.720p.BDRip.AC3 2.0.Leon345\r\n===================================================\r\n\r\ngatunek: Akcja,Sci-Fi\r\nprodukcja: USA\r\npremiera: 1 kwietnia 2016 (Polska) 19 marca 2016 (świat)\r\nreżyseria: Zack Snyder\r\nscenariusz: Chris Terrio,David S. Goyer\r\n \nhttp://imdb.com/title/tt2975590/\r\n\r\nW obawie przed poczynaniami nieposkromionego superbohatera o boskich rysach i zdolnościach, najznamienitszy obywatel Gotham City, a zarazem zaciekły strażnik porządku, staje do walki z otaczanym czcią współczesnym wybawcą Metropolis, podczas gdy świat usiłuje ustalić, jakiego bohatera naprawdę potrzebuje. Wobec konfliktu, który rozgorzał między Batmanem i Supermanem, na horyzoncie szybko pojawia się nowy wróg, stawiając ludzkość w obliczu śmiertelnego niebezpieczeństwa, z jakim jeszcze nigdy nie musiała się mierzyć. \r\n\r\nOBSADA:\r\n\r\nBen Affleck - Bruce Wayne / Batman (Jacek Rozenek polski dubbing) \r\nHenry Cavill - Clark Kent / Superman (Grzegorz Kwiecień polski dubbing) \r\nJesse Eisenberg - Lex Luthor (Krzysztof Szczepaniak polski dubbing) \r\nAmy Adams - Lois Lane (Bożena Furczyk polski dubbing) \r\nGal Gadot - Diana Prince / Wonder Woman (Anna Sroka polski dubbing) \r\nJeremy Irons - Alfred Pennyworth (Andrzej Chudy polski dubbing) \r\nHolly Hunter - Senator June Finch (Ewa Serwa polski dubbing)\r\n\r\nGeneral\r\n\r\nFormat : Matroska\r\nFormat version : Version 2\r\nFile size : 2.72 GiB\r\nDuration : 2h 31mn\r\nOverall bit rate : 2 567 Kbps\r\nMovie name : BatmanvSuperman.2016.BDRip.720p.Leon345\r\nEncoded date : UTC 2016-07-17 07:59:00\r\nWriting application : mkvmerge v5.7.0 ('The Whirlwind') built on Jul 8 2012 20:08:51\r\nWriting library : libebml v1.2.3 + libmatroska v1.3.0\r\n\r\nVideo\r\nID : 1\r\nFormat : AVC\r\nFormat/INFO : Advanced Video Codec\r\nFormat profile :   \r\nFormat settings, CABAC : Yes\r\nFormat settings, ReFrames : 6 frames\r\nCodec ID : V_MPEG4/ISO/AVC\r\nDuration : 2h 31mn\r\nBit rate : 2 309 Kbps\r\nWidth : 1 280 pixels\r\nHeight : 532 pixels\r\nDisplay aspect ratio : 2.40:1\r\nFrame rate mode : Constant\r\nFrame rate : 23.976 (24000/1001) fps\r\nColor space : YUV\r\nChroma subsampling : 4:2:0\r\nBit depth : 8 bits\r\nScan type : Progressive\r\nBits/(Pixel*Frame) : 0.141\r\nStream size : 2.39 GiB (88%)\r\nWriting library : x264\r\nEncoding settings : cabac=1 / ref=6 / deblock=1:-1:-1 / rc=2pass\r\nDefault : Yes\r\nForced : No\r\n\r\nAudio #1\r\nID : 2\r\nFormat : AC-3\r\nFormat/INFO : Audio Coding 3\r\nMode extension : CM (complete main)\r\nFormat settings, Endianness : Big\r\nCodec ID : A_AC3\r\nDuration : 2h 31mn\r\nBit rate mode : Constant\r\nBit rate : 128 Kbps\r\nChannel(s) : 2 channels\r\nChannel positions : Front: L R\r\nSampling rate : 48.0 KHz\r\nCompression mode : Lossy\r\nStream size : 139 MiB (5%)\r\nTitle : AC3 2.0 DubPL\r\nLanguage : Polish\r\nDefault : Yes\r\nForced : No\r\n\r\nAudio #2\r\nID : 3\r\nFormat : AC-3\r\nFormat/INFO : Audio Coding 3\r\nMode extension : CM (complete main)\r\nFormat settings, Endianness : Big\r\nCodec ID : A_AC3\r\nDuration : 2h 31mn\r\nBit rate mode : Constant\r\nBit rate : 128 Kbps\r\nChannel(s) : 2 channels\r\nChannel positions : Front: L R\r\nSampling rate : 48.0 KHz\r\nCompression mode : Lossy\r\nStream size : 139 MiB (5%)\r\nTitle : AC3 2.0 ENG\r\nLanguage : English\r\nDefault : No\r\nForced : No\r\n\r\nText #1\r\nID : 4\r\nFormat : UTF-8\r\nCodec ID : S_TEXT/UTF8\r\nCodec ID/INFO : UTF-8 Plain Text\r\nLanguage : Polish\r\nDefault : No\r\nForced : No\r\n\r\nText #2\r\nID : 5\r\nFormat : UTF-8\r\nCodec ID : S_TEXT/UTF8\r\nCodec ID/INFO : UTF-8 Plain Text\r\nLanguage : English\r\nDefault : No\r\nForced : No\r\n\r\nSource[thx]:\r\nA/V-BD3D REMUX HD CLUB\r\nLektor PL 2.0 - KiT","torrent":{"xt":"urn:btih:fb4b8d5e7f110d813c690d037db266c8e575b7f1","amp;dn":"Batman+v+Superman%3A+Dawn+of+Justice+%2A2016%2A+%28Theatrical+Cut%29%5B720p.","amp;tr":["udp%3A%2F%2Ftracker.leechers-paradise.org%3A6969","udp%3A%2F%2Fzer0day.ch%3A1337","udp%3A%2F%2Fopen.demonii.com%3A1337","udp%3A%2F%2Ftracker.coppersurfer.tk%3A6969","udp%3A%2F%2Fexodus.desync.com%3A6969"],"infoHash":"fb4b8d5e7f110d813c690d037db266c8e575b7f1","infoHashBuffer":{"type":"Buffer","data":[251,75,141,94,127,17,13,129,60,105,13,3,125,178,102,200,229,117,183,241]},"announce":[],"urlList":[]}}